<svg width="155" height="39" viewBox="0 0 155 39" fill="none" xmlns="http://www.w3.org/2000/svg">
<path d="M0.659091 7.72727H6.17045L11.4773 17.75H11.7045L17.0114 7.72727H22.5227L14.0341 22.7727V31H9.14773V22.7727L0.659091 7.72727ZM29.0294 31.3409C27.2643 31.3409 25.7378 30.9659 24.4499 30.2159C23.1696 29.4583 22.1809 28.4053 21.484 27.0568C20.787 25.7008 20.4385 24.1288 20.4385 22.3409C20.4385 20.5379 20.787 18.9621 21.484 17.6136C22.1809 16.2576 23.1696 15.2045 24.4499 14.4545C25.7378 13.697 27.2643 13.3182 29.0294 13.3182C30.7946 13.3182 32.3173 13.697 33.5976 14.4545C34.8855 15.2045 35.8779 16.2576 36.5749 17.6136C37.2719 18.9621 37.6203 20.5379 37.6203 22.3409C37.6203 24.1288 37.2719 25.7008 36.5749 27.0568C35.8779 28.4053 34.8855 29.4583 33.5976 30.2159C32.3173 30.9659 30.7946 31.3409 29.0294 31.3409ZM29.0522 27.5909C29.8552 27.5909 30.5256 27.3636 31.0635 26.9091C31.6014 26.447 32.0067 25.8182 32.2794 25.0227C32.5597 24.2273 32.6999 23.322 32.6999 22.3068C32.6999 21.2917 32.5597 20.3864 32.2794 19.5909C32.0067 18.7955 31.6014 18.1667 31.0635 17.7045C30.5256 17.2424 29.8552 17.0114 29.0522 17.0114C28.2416 17.0114 27.5597 17.2424 27.0067 17.7045C26.4613 18.1667 26.0484 18.7955 25.7681 19.5909C25.4953 20.3864 25.359 21.2917 25.359 22.3068C25.359 23.322 25.4953 24.2273 25.7681 25.0227C26.0484 25.8182 26.4613 26.447 27.0067 26.9091C27.5597 27.3636 28.2416 27.5909 29.0522 27.5909ZM51.6413 23.5682V13.5455H56.4822V31H51.8344V27.8295H51.6526C51.2587 28.8523 50.6034 29.6742 49.6867 30.2955C48.7776 30.9167 47.6678 31.2273 46.3572 31.2273C45.1905 31.2273 44.164 30.9621 43.2776 30.4318C42.3913 29.9015 41.6981 29.1477 41.1981 28.1705C40.7056 27.1932 40.4556 26.0227 40.4481 24.6591V13.5455H45.289V23.7955C45.2966 24.8258 45.5731 25.6402 46.1185 26.2386C46.664 26.8371 47.395 27.1364 48.3117 27.1364C48.895 27.1364 49.4405 27.0038 49.9481 26.7386C50.4556 26.4659 50.8647 26.0644 51.1753 25.5341C51.4935 25.0038 51.6488 24.3485 51.6413 23.5682ZM60.0343 31V13.5455H64.7275V16.5909H64.9093C65.2275 15.5076 65.7616 14.6894 66.5116 14.1364C67.2616 13.5758 68.1252 13.2955 69.1025 13.2955C69.3449 13.2955 69.6063 13.3106 69.8866 13.3409C70.1669 13.3712 70.4131 13.4129 70.6252 13.4659V17.7614C70.398 17.6932 70.0836 17.6326 69.682 17.5795C69.2805 17.5265 68.9131 17.5 68.5798 17.5C67.8677 17.5 67.2313 17.6553 66.6707 17.9659C66.1177 18.2689 65.6783 18.6932 65.3525 19.2386C65.0343 19.7841 64.8752 20.4129 64.8752 21.125V31H60.0343ZM79.9852 31V7.72727H84.9057V26.9432H94.883V31H79.9852ZM105.617 31.3409C103.852 31.3409 102.325 30.9659 101.037 30.2159C99.7571 29.4583 98.7684 28.4053 98.0715 27.0568C97.3745 25.7008 97.026 24.1288 97.026 22.3409C97.026 20.5379 97.3745 18.9621 98.0715 17.6136C98.7684 16.2576 99.7571 15.2045 101.037 14.4545C102.325 13.697 103.852 13.3182 105.617 13.3182C107.382 13.3182 108.905 13.697 110.185 14.4545C111.473 15.2045 112.465 16.2576 113.162 17.6136C113.859 18.9621 114.208 20.5379 114.208 22.3409C114.208 24.1288 113.859 25.7008 113.162 27.0568C112.465 28.4053 111.473 29.4583 110.185 30.2159C108.905 30.9659 107.382 31.3409 105.617 31.3409ZM105.64 27.5909C106.443 27.5909 107.113 27.3636 107.651 26.9091C108.189 26.447 108.594 25.8182 108.867 25.0227C109.147 24.2273 109.287 23.322 109.287 22.3068C109.287 21.2917 109.147 20.3864 108.867 19.5909C108.594 18.7955 108.189 18.1667 107.651 17.7045C107.113 17.2424 106.443 17.0114 105.64 17.0114C104.829 17.0114 104.147 17.2424 103.594 17.7045C103.049 18.1667 102.636 18.7955 102.356 19.5909C102.083 20.3864 101.946 21.2917 101.946 22.3068C101.946 23.322 102.083 24.2273 102.356 25.0227C102.636 25.8182 103.049 26.447 103.594 26.9091C104.147 27.3636 104.829 27.5909 105.64 27.5909ZM124.899 37.9091C123.331 37.9091 121.986 37.6932 120.865 37.2614C119.751 36.8371 118.865 36.2576 118.206 35.5227C117.547 34.7879 117.119 33.9621 116.922 33.0455L121.399 32.4432C121.536 32.7917 121.751 33.1174 122.047 33.4205C122.342 33.7235 122.733 33.9659 123.217 34.1477C123.71 34.3371 124.308 34.4318 125.013 34.4318C126.066 34.4318 126.933 34.1742 127.615 33.6591C128.305 33.1515 128.649 32.2992 128.649 31.1023V27.9091H128.445C128.233 28.3939 127.914 28.8523 127.49 29.2841C127.066 29.7159 126.52 30.0682 125.854 30.3409C125.187 30.6136 124.392 30.75 123.467 30.75C122.157 30.75 120.964 30.447 119.888 29.8409C118.82 29.2273 117.967 28.2917 117.331 27.0341C116.702 25.7689 116.388 24.1705 116.388 22.2386C116.388 20.2614 116.71 18.6098 117.354 17.2841C117.998 15.9583 118.854 14.9659 119.922 14.3068C120.998 13.6477 122.176 13.3182 123.456 13.3182C124.433 13.3182 125.251 13.4848 125.911 13.8182C126.57 14.1439 127.1 14.553 127.501 15.0455C127.911 15.5303 128.225 16.0076 128.445 16.4773H128.626V13.5455H133.433V31.1705C133.433 32.6553 133.07 33.8977 132.342 34.8977C131.615 35.8977 130.608 36.6477 129.32 37.1477C128.039 37.6553 126.566 37.9091 124.899 37.9091ZM125.001 27.1136C125.782 27.1136 126.441 26.9205 126.979 26.5341C127.524 26.1402 127.941 25.5795 128.229 24.8523C128.524 24.1174 128.672 23.2386 128.672 22.2159C128.672 21.1932 128.528 20.3068 128.24 19.5568C127.952 18.7992 127.536 18.2121 126.99 17.7955C126.445 17.3788 125.782 17.1705 125.001 17.1705C124.206 17.1705 123.536 17.3864 122.99 17.8182C122.445 18.2424 122.032 18.8333 121.751 19.5909C121.471 20.3485 121.331 21.2235 121.331 22.2159C121.331 23.2235 121.471 24.0947 121.751 24.8295C122.039 25.5568 122.452 26.1212 122.99 26.5227C123.536 26.9167 124.206 27.1136 125.001 27.1136ZM144.852 31.3409C143.087 31.3409 141.56 30.9659 140.272 30.2159C138.992 29.4583 138.003 28.4053 137.306 27.0568C136.61 25.7008 136.261 24.1288 136.261 22.3409C136.261 20.5379 136.61 18.9621 137.306 17.6136C138.003 16.2576 138.992 15.2045 140.272 14.4545C141.56 13.697 143.087 13.3182 144.852 13.3182C146.617 13.3182 148.14 13.697 149.42 14.4545C150.708 15.2045 151.7 16.2576 152.397 17.6136C153.094 18.9621 153.443 20.5379 153.443 22.3409C153.443 24.1288 153.094 25.7008 152.397 27.0568C151.7 28.4053 150.708 29.4583 149.42 30.2159C148.14 30.9659 146.617 31.3409 144.852 31.3409ZM144.875 27.5909C145.678 27.5909 146.348 27.3636 146.886 26.9091C147.424 26.447 147.829 25.8182 148.102 25.0227C148.382 24.2273 148.522 23.322 148.522 22.3068C148.522 21.2917 148.382 20.3864 148.102 19.5909C147.829 18.7955 147.424 18.1667 146.886 17.7045C146.348 17.2424 145.678 17.0114 144.875 17.0114C144.064 17.0114 143.382 17.2424 142.829 17.7045C142.284 18.1667 141.871 18.7955 141.591 19.5909C141.318 20.3864 141.181 21.2917 141.181 22.3068C141.181 23.322 141.318 24.2273 141.591 25.0227C141.871 25.8182 142.284 26.447 142.829 26.9091C143.382 27.3636 144.064 27.5909 144.875 27.5909Z" fill="#808194"/>
</svg>
